<mxfile host="app.diagrams.net" modified="2021-10-15T15:55:50.022Z" agent="5.0 (Windows NT 10.0; Win64; x64) AppleWebKit/537.36 (KHTML, like Gecko) Chrome/94.0.4606.81 Safari/537.36 Edg/94.0.992.50" etag="4RMyPdncBEMsmo3sqJpr" version="15.5.4" type="github">
  <diagram id="UUojyURU6DILhNTMgHQq" name="Page-1">
    <mxGraphModel dx="628" dy="620" grid="1" gridSize="10" guides="1" tooltips="1" connect="1" arrows="1" fold="1" page="1" pageScale="1" pageWidth="827" pageHeight="1169" math="0" shadow="0">
      <root>
        <mxCell id="0" />
        <mxCell id="1" parent="0" />
        <mxCell id="ZI_lnoc9z6EePYdpiMYf-3" value="&lt;span style=&quot;font-size: 15px&quot;&gt;子数据集n&lt;/span&gt;" style="rounded=1;whiteSpace=wrap;html=1;" vertex="1" parent="1">
          <mxGeometry x="414" y="320" width="110" height="30" as="geometry" />
        </mxCell>
        <mxCell id="ZI_lnoc9z6EePYdpiMYf-4" value="&lt;span style=&quot;font-size: 15px&quot;&gt;子数据集2&lt;/span&gt;" style="rounded=1;whiteSpace=wrap;html=1;" vertex="1" parent="1">
          <mxGeometry x="200" y="320" width="110" height="30" as="geometry" />
        </mxCell>
        <mxCell id="ZI_lnoc9z6EePYdpiMYf-5" value="&lt;font style=&quot;font-size: 15px&quot;&gt;子数据集1&lt;/font&gt;" style="rounded=1;whiteSpace=wrap;html=1;" vertex="1" parent="1">
          <mxGeometry x="60" y="320" width="110" height="30" as="geometry" />
        </mxCell>
        <mxCell id="ZI_lnoc9z6EePYdpiMYf-8" value="" style="edgeStyle=orthogonalEdgeStyle;rounded=0;orthogonalLoop=1;jettySize=auto;html=1;fontSize=15;" edge="1" parent="1" source="ZI_lnoc9z6EePYdpiMYf-6" target="ZI_lnoc9z6EePYdpiMYf-7">
          <mxGeometry relative="1" as="geometry" />
        </mxCell>
        <mxCell id="ZI_lnoc9z6EePYdpiMYf-6" value="&lt;font style=&quot;font-size: 15px&quot;&gt;训练数据集&lt;/font&gt;" style="rounded=1;whiteSpace=wrap;html=1;" vertex="1" parent="1">
          <mxGeometry x="200" y="190" width="110" height="30" as="geometry" />
        </mxCell>
        <mxCell id="ZI_lnoc9z6EePYdpiMYf-9" value="" style="edgeStyle=orthogonalEdgeStyle;rounded=0;orthogonalLoop=1;jettySize=auto;html=1;fontSize=15;" edge="1" parent="1" source="ZI_lnoc9z6EePYdpiMYf-7" target="ZI_lnoc9z6EePYdpiMYf-4">
          <mxGeometry relative="1" as="geometry" />
        </mxCell>
        <mxCell id="ZI_lnoc9z6EePYdpiMYf-7" value="Bootstrap采样" style="ellipse;whiteSpace=wrap;html=1;fontSize=15;" vertex="1" parent="1">
          <mxGeometry x="200" y="250" width="110" height="40" as="geometry" />
        </mxCell>
        <mxCell id="ZI_lnoc9z6EePYdpiMYf-11" value="" style="endArrow=classic;html=1;rounded=0;fontSize=15;exitX=0.5;exitY=1;exitDx=0;exitDy=0;entryX=0.5;entryY=0;entryDx=0;entryDy=0;" edge="1" parent="1" source="ZI_lnoc9z6EePYdpiMYf-7" target="ZI_lnoc9z6EePYdpiMYf-3">
          <mxGeometry width="50" height="50" relative="1" as="geometry">
            <mxPoint x="300" y="340" as="sourcePoint" />
            <mxPoint x="350" y="290" as="targetPoint" />
            <Array as="points">
              <mxPoint x="469" y="290" />
            </Array>
          </mxGeometry>
        </mxCell>
        <mxCell id="ZI_lnoc9z6EePYdpiMYf-10" value="" style="endArrow=classic;html=1;rounded=0;fontSize=15;exitX=0.5;exitY=1;exitDx=0;exitDy=0;entryX=0.5;entryY=0;entryDx=0;entryDy=0;" edge="1" parent="1" source="ZI_lnoc9z6EePYdpiMYf-7" target="ZI_lnoc9z6EePYdpiMYf-5">
          <mxGeometry width="50" height="50" relative="1" as="geometry">
            <mxPoint x="300" y="340" as="sourcePoint" />
            <mxPoint x="120" y="280" as="targetPoint" />
            <Array as="points">
              <mxPoint x="115" y="290" />
            </Array>
          </mxGeometry>
        </mxCell>
        <mxCell id="ZI_lnoc9z6EePYdpiMYf-12" value="" style="endArrow=classic;html=1;rounded=0;fontSize=15;" edge="1" parent="1">
          <mxGeometry width="50" height="50" relative="1" as="geometry">
            <mxPoint x="260" y="290" as="sourcePoint" />
            <mxPoint x="360" y="320" as="targetPoint" />
            <Array as="points">
              <mxPoint x="360" y="290" />
            </Array>
          </mxGeometry>
        </mxCell>
        <mxCell id="ZI_lnoc9z6EePYdpiMYf-13" value="··········" style="text;html=1;strokeColor=none;fillColor=none;align=center;verticalAlign=middle;whiteSpace=wrap;rounded=0;fontSize=15;" vertex="1" parent="1">
          <mxGeometry x="330" y="320" width="60" height="30" as="geometry" />
        </mxCell>
        <mxCell id="ZI_lnoc9z6EePYdpiMYf-15" value="" style="ellipse;whiteSpace=wrap;html=1;aspect=fixed;fontSize=15;" vertex="1" parent="1">
          <mxGeometry x="80" y="370" width="30" height="30" as="geometry" />
        </mxCell>
        <mxCell id="ZI_lnoc9z6EePYdpiMYf-16" value="" style="endArrow=classic;html=1;rounded=0;fontSize=15;exitX=0.5;exitY=1;exitDx=0;exitDy=0;entryX=0.5;entryY=0;entryDx=0;entryDy=0;" edge="1" parent="1" source="ZI_lnoc9z6EePYdpiMYf-15" target="ZI_lnoc9z6EePYdpiMYf-22">
          <mxGeometry width="50" height="50" relative="1" as="geometry">
            <mxPoint x="280" y="440" as="sourcePoint" />
            <mxPoint x="60" y="420" as="targetPoint" />
          </mxGeometry>
        </mxCell>
        <mxCell id="ZI_lnoc9z6EePYdpiMYf-18" value="" style="ellipse;whiteSpace=wrap;html=1;aspect=fixed;fontSize=15;" vertex="1" parent="1">
          <mxGeometry x="140" y="470" width="30" height="30" as="geometry" />
        </mxCell>
        <mxCell id="ZI_lnoc9z6EePYdpiMYf-19" value="" style="ellipse;whiteSpace=wrap;html=1;aspect=fixed;fontSize=15;" vertex="1" parent="1">
          <mxGeometry x="80" y="470" width="30" height="30" as="geometry" />
        </mxCell>
        <mxCell id="ZI_lnoc9z6EePYdpiMYf-20" value="" style="ellipse;whiteSpace=wrap;html=1;aspect=fixed;fontSize=15;" vertex="1" parent="1">
          <mxGeometry x="110" y="420" width="30" height="30" as="geometry" />
        </mxCell>
        <mxCell id="ZI_lnoc9z6EePYdpiMYf-21" value="" style="ellipse;whiteSpace=wrap;html=1;aspect=fixed;fontSize=15;" vertex="1" parent="1">
          <mxGeometry x="30" y="470" width="30" height="30" as="geometry" />
        </mxCell>
        <mxCell id="ZI_lnoc9z6EePYdpiMYf-22" value="" style="ellipse;whiteSpace=wrap;html=1;aspect=fixed;fontSize=15;" vertex="1" parent="1">
          <mxGeometry x="50" y="420" width="30" height="30" as="geometry" />
        </mxCell>
        <mxCell id="ZI_lnoc9z6EePYdpiMYf-23" value="" style="endArrow=classic;html=1;rounded=0;fontSize=15;exitX=0.5;exitY=1;exitDx=0;exitDy=0;" edge="1" parent="1" source="ZI_lnoc9z6EePYdpiMYf-15">
          <mxGeometry width="50" height="50" relative="1" as="geometry">
            <mxPoint x="105" y="410" as="sourcePoint" />
            <mxPoint x="120" y="420" as="targetPoint" />
          </mxGeometry>
        </mxCell>
        <mxCell id="ZI_lnoc9z6EePYdpiMYf-24" value="" style="endArrow=classic;html=1;rounded=0;fontSize=15;exitX=0.5;exitY=1;exitDx=0;exitDy=0;entryX=0.5;entryY=0;entryDx=0;entryDy=0;" edge="1" parent="1" source="ZI_lnoc9z6EePYdpiMYf-22" target="ZI_lnoc9z6EePYdpiMYf-21">
          <mxGeometry width="50" height="50" relative="1" as="geometry">
            <mxPoint x="105" y="410" as="sourcePoint" />
            <mxPoint x="80" y="480" as="targetPoint" />
            <Array as="points" />
          </mxGeometry>
        </mxCell>
        <mxCell id="ZI_lnoc9z6EePYdpiMYf-25" value="" style="endArrow=classic;html=1;rounded=0;fontSize=15;exitX=0.5;exitY=1;exitDx=0;exitDy=0;" edge="1" parent="1">
          <mxGeometry width="50" height="50" relative="1" as="geometry">
            <mxPoint x="125" y="450" as="sourcePoint" />
            <mxPoint x="100" y="470" as="targetPoint" />
          </mxGeometry>
        </mxCell>
        <mxCell id="ZI_lnoc9z6EePYdpiMYf-26" value="" style="endArrow=classic;html=1;rounded=0;fontSize=15;exitX=0.5;exitY=1;exitDx=0;exitDy=0;" edge="1" parent="1">
          <mxGeometry width="50" height="50" relative="1" as="geometry">
            <mxPoint x="130" y="450" as="sourcePoint" />
            <mxPoint x="155" y="470" as="targetPoint" />
          </mxGeometry>
        </mxCell>
        <mxCell id="ZI_lnoc9z6EePYdpiMYf-28" value="" style="ellipse;whiteSpace=wrap;html=1;aspect=fixed;fontSize=15;" vertex="1" parent="1">
          <mxGeometry x="250" y="370" width="30" height="30" as="geometry" />
        </mxCell>
        <mxCell id="ZI_lnoc9z6EePYdpiMYf-29" value="" style="endArrow=classic;html=1;rounded=0;fontSize=15;exitX=0.5;exitY=1;exitDx=0;exitDy=0;entryX=0.5;entryY=0;entryDx=0;entryDy=0;" edge="1" parent="1" source="ZI_lnoc9z6EePYdpiMYf-28" target="ZI_lnoc9z6EePYdpiMYf-34">
          <mxGeometry width="50" height="50" relative="1" as="geometry">
            <mxPoint x="450" y="440" as="sourcePoint" />
            <mxPoint x="230" y="420" as="targetPoint" />
          </mxGeometry>
        </mxCell>
        <mxCell id="ZI_lnoc9z6EePYdpiMYf-30" value="" style="ellipse;whiteSpace=wrap;html=1;aspect=fixed;fontSize=15;" vertex="1" parent="1">
          <mxGeometry x="310" y="470" width="30" height="30" as="geometry" />
        </mxCell>
        <mxCell id="ZI_lnoc9z6EePYdpiMYf-31" value="" style="ellipse;whiteSpace=wrap;html=1;aspect=fixed;fontSize=15;" vertex="1" parent="1">
          <mxGeometry x="250" y="470" width="30" height="30" as="geometry" />
        </mxCell>
        <mxCell id="ZI_lnoc9z6EePYdpiMYf-32" value="" style="ellipse;whiteSpace=wrap;html=1;aspect=fixed;fontSize=15;" vertex="1" parent="1">
          <mxGeometry x="280" y="420" width="30" height="30" as="geometry" />
        </mxCell>
        <mxCell id="ZI_lnoc9z6EePYdpiMYf-33" value="" style="ellipse;whiteSpace=wrap;html=1;aspect=fixed;fontSize=15;" vertex="1" parent="1">
          <mxGeometry x="200" y="470" width="30" height="30" as="geometry" />
        </mxCell>
        <mxCell id="ZI_lnoc9z6EePYdpiMYf-34" value="" style="ellipse;whiteSpace=wrap;html=1;aspect=fixed;fontSize=15;" vertex="1" parent="1">
          <mxGeometry x="220" y="420" width="30" height="30" as="geometry" />
        </mxCell>
        <mxCell id="ZI_lnoc9z6EePYdpiMYf-35" value="" style="endArrow=classic;html=1;rounded=0;fontSize=15;exitX=0.5;exitY=1;exitDx=0;exitDy=0;" edge="1" parent="1" source="ZI_lnoc9z6EePYdpiMYf-28">
          <mxGeometry width="50" height="50" relative="1" as="geometry">
            <mxPoint x="275" y="410" as="sourcePoint" />
            <mxPoint x="290" y="420" as="targetPoint" />
          </mxGeometry>
        </mxCell>
        <mxCell id="ZI_lnoc9z6EePYdpiMYf-36" value="" style="endArrow=classic;html=1;rounded=0;fontSize=15;exitX=0.5;exitY=1;exitDx=0;exitDy=0;entryX=0.5;entryY=0;entryDx=0;entryDy=0;" edge="1" parent="1" source="ZI_lnoc9z6EePYdpiMYf-34" target="ZI_lnoc9z6EePYdpiMYf-33">
          <mxGeometry width="50" height="50" relative="1" as="geometry">
            <mxPoint x="275" y="410" as="sourcePoint" />
            <mxPoint x="250" y="480" as="targetPoint" />
            <Array as="points" />
          </mxGeometry>
        </mxCell>
        <mxCell id="ZI_lnoc9z6EePYdpiMYf-37" value="" style="endArrow=classic;html=1;rounded=0;fontSize=15;exitX=0.5;exitY=1;exitDx=0;exitDy=0;" edge="1" parent="1">
          <mxGeometry width="50" height="50" relative="1" as="geometry">
            <mxPoint x="295" y="450" as="sourcePoint" />
            <mxPoint x="270" y="470" as="targetPoint" />
          </mxGeometry>
        </mxCell>
        <mxCell id="ZI_lnoc9z6EePYdpiMYf-38" value="" style="endArrow=classic;html=1;rounded=0;fontSize=15;exitX=0.5;exitY=1;exitDx=0;exitDy=0;" edge="1" parent="1">
          <mxGeometry width="50" height="50" relative="1" as="geometry">
            <mxPoint x="300" y="450" as="sourcePoint" />
            <mxPoint x="325" y="470" as="targetPoint" />
          </mxGeometry>
        </mxCell>
        <mxCell id="ZI_lnoc9z6EePYdpiMYf-39" value="" style="ellipse;whiteSpace=wrap;html=1;aspect=fixed;fontSize=15;" vertex="1" parent="1">
          <mxGeometry x="460" y="370" width="30" height="30" as="geometry" />
        </mxCell>
        <mxCell id="ZI_lnoc9z6EePYdpiMYf-40" value="" style="endArrow=classic;html=1;rounded=0;fontSize=15;exitX=0.5;exitY=1;exitDx=0;exitDy=0;entryX=0.5;entryY=0;entryDx=0;entryDy=0;" edge="1" parent="1" source="ZI_lnoc9z6EePYdpiMYf-39" target="ZI_lnoc9z6EePYdpiMYf-45">
          <mxGeometry width="50" height="50" relative="1" as="geometry">
            <mxPoint x="660" y="440" as="sourcePoint" />
            <mxPoint x="440" y="420" as="targetPoint" />
          </mxGeometry>
        </mxCell>
        <mxCell id="ZI_lnoc9z6EePYdpiMYf-41" value="" style="ellipse;whiteSpace=wrap;html=1;aspect=fixed;fontSize=15;" vertex="1" parent="1">
          <mxGeometry x="520" y="470" width="30" height="30" as="geometry" />
        </mxCell>
        <mxCell id="ZI_lnoc9z6EePYdpiMYf-42" value="" style="ellipse;whiteSpace=wrap;html=1;aspect=fixed;fontSize=15;" vertex="1" parent="1">
          <mxGeometry x="460" y="470" width="30" height="30" as="geometry" />
        </mxCell>
        <mxCell id="ZI_lnoc9z6EePYdpiMYf-43" value="" style="ellipse;whiteSpace=wrap;html=1;aspect=fixed;fontSize=15;" vertex="1" parent="1">
          <mxGeometry x="490" y="420" width="30" height="30" as="geometry" />
        </mxCell>
        <mxCell id="ZI_lnoc9z6EePYdpiMYf-44" value="" style="ellipse;whiteSpace=wrap;html=1;aspect=fixed;fontSize=15;" vertex="1" parent="1">
          <mxGeometry x="410" y="470" width="30" height="30" as="geometry" />
        </mxCell>
        <mxCell id="ZI_lnoc9z6EePYdpiMYf-45" value="" style="ellipse;whiteSpace=wrap;html=1;aspect=fixed;fontSize=15;" vertex="1" parent="1">
          <mxGeometry x="430" y="420" width="30" height="30" as="geometry" />
        </mxCell>
        <mxCell id="ZI_lnoc9z6EePYdpiMYf-46" value="" style="endArrow=classic;html=1;rounded=0;fontSize=15;exitX=0.5;exitY=1;exitDx=0;exitDy=0;" edge="1" parent="1" source="ZI_lnoc9z6EePYdpiMYf-39">
          <mxGeometry width="50" height="50" relative="1" as="geometry">
            <mxPoint x="485" y="410" as="sourcePoint" />
            <mxPoint x="500" y="420" as="targetPoint" />
          </mxGeometry>
        </mxCell>
        <mxCell id="ZI_lnoc9z6EePYdpiMYf-47" value="" style="endArrow=classic;html=1;rounded=0;fontSize=15;exitX=0.5;exitY=1;exitDx=0;exitDy=0;entryX=0.5;entryY=0;entryDx=0;entryDy=0;" edge="1" parent="1" source="ZI_lnoc9z6EePYdpiMYf-45" target="ZI_lnoc9z6EePYdpiMYf-44">
          <mxGeometry width="50" height="50" relative="1" as="geometry">
            <mxPoint x="485" y="410" as="sourcePoint" />
            <mxPoint x="460" y="480" as="targetPoint" />
            <Array as="points" />
          </mxGeometry>
        </mxCell>
        <mxCell id="ZI_lnoc9z6EePYdpiMYf-48" value="" style="endArrow=classic;html=1;rounded=0;fontSize=15;exitX=0.5;exitY=1;exitDx=0;exitDy=0;" edge="1" parent="1">
          <mxGeometry width="50" height="50" relative="1" as="geometry">
            <mxPoint x="505" y="450" as="sourcePoint" />
            <mxPoint x="480" y="470" as="targetPoint" />
          </mxGeometry>
        </mxCell>
        <mxCell id="ZI_lnoc9z6EePYdpiMYf-49" value="" style="endArrow=classic;html=1;rounded=0;fontSize=15;exitX=0.5;exitY=1;exitDx=0;exitDy=0;" edge="1" parent="1">
          <mxGeometry width="50" height="50" relative="1" as="geometry">
            <mxPoint x="510" y="450" as="sourcePoint" />
            <mxPoint x="535" y="470" as="targetPoint" />
          </mxGeometry>
        </mxCell>
        <mxCell id="ZI_lnoc9z6EePYdpiMYf-51" value="" style="endArrow=classic;html=1;rounded=0;fontSize=15;exitX=0.317;exitY=1.014;exitDx=0;exitDy=0;entryX=0.5;entryY=0;entryDx=0;entryDy=0;exitPerimeter=0;" edge="1" parent="1" source="ZI_lnoc9z6EePYdpiMYf-5" target="ZI_lnoc9z6EePYdpiMYf-15">
          <mxGeometry width="50" height="50" relative="1" as="geometry">
            <mxPoint x="160" y="530" as="sourcePoint" />
            <mxPoint x="210" y="480" as="targetPoint" />
            <Array as="points" />
          </mxGeometry>
        </mxCell>
        <mxCell id="ZI_lnoc9z6EePYdpiMYf-52" value="" style="endArrow=classic;html=1;rounded=0;fontSize=15;exitX=0.592;exitY=1.011;exitDx=0;exitDy=0;entryX=0.5;entryY=0;entryDx=0;entryDy=0;exitPerimeter=0;" edge="1" parent="1" source="ZI_lnoc9z6EePYdpiMYf-4" target="ZI_lnoc9z6EePYdpiMYf-28">
          <mxGeometry width="50" height="50" relative="1" as="geometry">
            <mxPoint x="261.97" y="350.63" as="sourcePoint" />
            <mxPoint x="248.03000000000006" y="369.9999999999999" as="targetPoint" />
          </mxGeometry>
        </mxCell>
        <mxCell id="ZI_lnoc9z6EePYdpiMYf-53" value="" style="endArrow=classic;html=1;rounded=0;fontSize=15;entryX=0.5;entryY=0;entryDx=0;entryDy=0;" edge="1" parent="1" target="ZI_lnoc9z6EePYdpiMYf-39">
          <mxGeometry width="50" height="50" relative="1" as="geometry">
            <mxPoint x="475" y="351" as="sourcePoint" />
            <mxPoint x="462.0300000000001" y="369.9999999999999" as="targetPoint" />
          </mxGeometry>
        </mxCell>
        <mxCell id="ZI_lnoc9z6EePYdpiMYf-56" value="&lt;font style=&quot;font-size: 15px&quot;&gt;决策树n结果&lt;/font&gt;" style="rounded=1;whiteSpace=wrap;html=1;" vertex="1" parent="1">
          <mxGeometry x="420" y="520" width="110" height="30" as="geometry" />
        </mxCell>
        <mxCell id="ZI_lnoc9z6EePYdpiMYf-62" value="" style="edgeStyle=orthogonalEdgeStyle;rounded=0;orthogonalLoop=1;jettySize=auto;html=1;fontSize=15;" edge="1" parent="1" source="ZI_lnoc9z6EePYdpiMYf-57" target="ZI_lnoc9z6EePYdpiMYf-60">
          <mxGeometry relative="1" as="geometry" />
        </mxCell>
        <mxCell id="ZI_lnoc9z6EePYdpiMYf-57" value="&lt;font style=&quot;font-size: 15px&quot;&gt;决策树2结果&lt;/font&gt;" style="rounded=1;whiteSpace=wrap;html=1;" vertex="1" parent="1">
          <mxGeometry x="220" y="520" width="110" height="30" as="geometry" />
        </mxCell>
        <mxCell id="ZI_lnoc9z6EePYdpiMYf-61" value="" style="edgeStyle=orthogonalEdgeStyle;rounded=0;orthogonalLoop=1;jettySize=auto;html=1;fontSize=15;" edge="1" parent="1" source="ZI_lnoc9z6EePYdpiMYf-58" target="ZI_lnoc9z6EePYdpiMYf-60">
          <mxGeometry relative="1" as="geometry">
            <Array as="points">
              <mxPoint x="95" y="580" />
              <mxPoint x="275" y="580" />
            </Array>
          </mxGeometry>
        </mxCell>
        <mxCell id="ZI_lnoc9z6EePYdpiMYf-58" value="&lt;font style=&quot;font-size: 15px&quot;&gt;决策树1结果&lt;/font&gt;" style="rounded=1;whiteSpace=wrap;html=1;" vertex="1" parent="1">
          <mxGeometry x="40" y="520" width="110" height="30" as="geometry" />
        </mxCell>
        <mxCell id="ZI_lnoc9z6EePYdpiMYf-60" value="&lt;font style=&quot;font-size: 14px&quot;&gt;随机森林输出结果&lt;/font&gt;" style="whiteSpace=wrap;html=1;rounded=1;" vertex="1" parent="1">
          <mxGeometry x="213.75" y="600" width="122.5" height="30" as="geometry" />
        </mxCell>
        <mxCell id="ZI_lnoc9z6EePYdpiMYf-64" value="" style="endArrow=classic;html=1;rounded=0;fontSize=15;exitX=0.5;exitY=1;exitDx=0;exitDy=0;entryX=0.5;entryY=0;entryDx=0;entryDy=0;" edge="1" parent="1" source="ZI_lnoc9z6EePYdpiMYf-56" target="ZI_lnoc9z6EePYdpiMYf-60">
          <mxGeometry width="50" height="50" relative="1" as="geometry">
            <mxPoint x="230" y="580" as="sourcePoint" />
            <mxPoint x="280" y="530" as="targetPoint" />
            <Array as="points">
              <mxPoint x="475" y="580" />
              <mxPoint x="275" y="580" />
            </Array>
          </mxGeometry>
        </mxCell>
      </root>
    </mxGraphModel>
  </diagram>
</mxfile>
